<?xml version="1.0" encoding="UTF-8"?>
<svg width="20px" height="37px" viewBox="0 0 20 37" version="1.1" xmlns="http://www.w3.org/2000/svg" xmlns:xlink="http://www.w3.org/1999/xlink">
    <title>facebook</title>
    <g id="Landing-page" stroke="none" stroke-width="1" fill="none" fill-rule="evenodd">
        <g id="Desktop-HD" transform="translate(-1274.000000, -5488.000000)" fill="#FFFFFF" fill-rule="nonzero">
            <g id="social" transform="translate(1207.000000, 5488.000000)">
                <g id="facebook" transform="translate(67.000000, 0.000000)">
                    <path d="M1.17637832,21.4862083 L5.12587248,21.4862083 L5.12587248,35.8422083 C5.12587248,36.4804583 5.65132146,36.9984583 6.3022508,36.9984583 L12.5872481,37 C13.2381774,37 13.7636264,36.4804583 13.7636264,35.84375 L13.7636264,21.48775 L17.5076465,21.48775 C18.1005411,21.48775 18.600894,21.053 18.6746138,20.474875 L19.455729,14.3082083 C19.5435652,13.620625 18.9961572,13.0085833 18.2887617,13.0085833 L13.7636264,13.0085833 C13.9408674,9.199125 13.081327,8.07216667 15.6019136,8.07216667 C17.3084464,7.87175 20,8.72120833 20,6.91591667 L20,1.401375 C20,0.82325 19.5655243,0.334541667 18.9836091,0.255916667 C18.4910987,0.189625 16.5445847,0 14.1306564,0 C3.13544036,0 5.39879225,11.9818333 5.12744099,13.0070417 L1.17637832,13.0070417 C0.527017489,13.0070417 0,13.5250417 0,14.1632917 L0,20.3299583 C0,20.9682083 0.527017489,21.4862083 1.17637832,21.4862083 Z M2.35275665,15.3210833 L6.3022508,15.3210833 C6.95161164,15.3210833 7.47862913,14.8030833 7.47862913,14.1648333 L7.47862913,9.30704167 C7.47862913,4.86241667 9.90196847,2.31404167 14.1290879,2.31404167 C15.5062348,2.31404167 16.7735864,2.38033333 17.6456748,2.44816667 L17.6456748,5.76120833 C17.0151361,6.07725 11.4093012,4.398375 11.4093012,9.91908333 L11.4093012,14.166375 C11.4093012,14.804625 11.9363187,15.322625 12.5856796,15.322625 L16.9555329,15.322625 L16.4661595,19.1767917 L12.5856796,19.1767917 C11.9363187,19.1767917 11.4093012,19.6947917 11.4093012,20.3330417 L11.4093012,34.6875 L7.48019763,34.6875 L7.48019763,20.3315 C7.48019763,19.69325 6.95318014,19.17525 6.30381931,19.17525 L2.35275665,19.17525 L2.35275665,15.3210833 Z" id="Shape"></path>
                </g>
            </g>
        </g>
    </g>
</svg>