<?xml version="1.0" encoding="UTF-8"?>
<svg width="37px" height="37px" viewBox="0 0 37 37" version="1.1" xmlns="http://www.w3.org/2000/svg" xmlns:xlink="http://www.w3.org/1999/xlink">
    <title>instagram</title>
    <g id="Landing-page" stroke="none" stroke-width="1" fill="none" fill-rule="evenodd">
        <g id="Desktop-HD" transform="translate(-1207.000000, -5488.000000)" fill="#FFFFFF" fill-rule="nonzero">
            <g id="instagram" transform="translate(1207.000000, 5488.000000)">
                <path d="M25.4375,0 L11.5625,0 C5.1776875,0 0,5.1776875 0,11.5625 L0,25.4375 C0,31.8223125 5.1776875,37 11.5625,37 L25.4375,37 C31.8223125,37 37,31.8223125 37,25.4375 L37,11.5625 C37,5.1776875 31.8223125,0 25.4375,0 Z M33.53125,25.4375 C33.53125,29.900625 29.900625,33.53125 25.4375,33.53125 L11.5625,33.53125 C7.099375,33.53125 3.46875,29.900625 3.46875,25.4375 L3.46875,11.5625 C3.46875,7.099375 7.099375,3.46875 11.5625,3.46875 L25.4375,3.46875 C29.900625,3.46875 33.53125,7.099375 33.53125,11.5625 L33.53125,25.4375 Z" id="Shape"></path>
                <path d="M18.5,9 C13.253625,9 9,13.253625 9,18.5 C9,23.746375 13.253625,28 18.5,28 C23.746375,28 28,23.746375 28,18.5 C28,13.253625 23.746375,9 18.5,9 Z M18.5,24.4375 C15.22725,24.4375 12.5625,21.77275 12.5625,18.5 C12.5625,15.224875 15.22725,12.5625 18.5,12.5625 C21.77275,12.5625 24.4375,15.224875 24.4375,18.5 C24.4375,21.77275 21.77275,24.4375 18.5,24.4375 Z" id="Shape"></path>
                <circle id="Oval" cx="28.5" cy="8.5" r="1.5"></circle>
            </g>
        </g>
    </g>
</svg>