<?xml version="1.0" encoding="UTF-8"?>
<svg width="37px" height="37px" viewBox="0 0 37 37" version="1.1" xmlns="http://www.w3.org/2000/svg" xmlns:xlink="http://www.w3.org/1999/xlink">
    <title>linkedin</title>
    <g id="Landing-page" stroke="none" stroke-width="1" fill="none" fill-rule="evenodd">
        <g id="Desktop-HD" transform="translate(-1324.000000, -5488.000000)" fill="#FFFFFF" fill-rule="nonzero">
            <g id="social" transform="translate(1207.000000, 5488.000000)">
                <g id="linkedin" transform="translate(117.000000, 0.000000)">
                    <path d="M33.6530497,0 L3.34695026,0 C1.4985,0 0,1.4985 0,3.34695026 L0,33.6529529 C0,35.5015 1.4985,37 3.34695026,37 L33.6529529,37 C35.5015,37 37,35.5015 37,33.6529529 L37,3.34695026 C37,1.4985 35.5015,0 33.6530497,0 Z M11,32.0425401 C11,32.571352 10.5706793,33 10.0410375,33 L5.95896246,33 C5.4293207,33 5,32.571352 5,32.0425401 L5,14.9574599 C5,14.428648 5.4293207,14 5.95896246,14 L10.0410375,14 C10.5706793,14 11,14.428648 11,14.9574599 L11,32.0425401 Z M8,12 C5.79088182,12 4,10.2091182 4,8 C4,5.79088182 5.79088182,4 8,4 C10.2091182,4 12,5.79088182 12,8 C12,10.2091182 10.2092165,12 8,12 Z M33,32.1327482 C33,32.6116783 32.5973582,33 32.1007699,33 L27.6334203,33 C27.136832,33 26.7341929,32.6116783 26.7341929,32.1327482 L26.7341929,24.2379989 C26.7341929,23.0602772 27.0923861,19.0771657 23.5429371,19.0771657 C20.7897217,19.0771657 20.2312787,21.8034843 20.1191427,23.0269791 L20.1191427,32.1327482 C20.1191427,32.6116783 19.7166008,33 19.2199152,33 L14.8992275,33 C14.4026392,33 14,32.6116783 14,32.1327482 L14,15.1496762 C14,14.670746 14.4026392,14.2824243 14.8992275,14.2824243 L19.2199152,14.2824243 C19.7165035,14.2824243 20.1191427,14.670746 20.1191427,15.1496762 L20.1191427,16.6180763 C21.1400372,15.140484 22.6572282,14 25.8875808,14 C33.0409421,14 33,20.4453901 33,23.9868091 L33,32.1327482 L33,32.1327482 Z" id="Shape"></path>
                </g>
            </g>
        </g>
    </g>
</svg>